<svg xmlns="http://www.w3.org/2000/svg" viewBox="0 0 700 195" font-family="monospace" font-size="12"><line x1="40" y1="90" x2="668" y2="90" stroke="#1d3f68" stroke-width="3"/><polygon points="676,90 664,84 664,96" fill="#1d3f68"/><text x="46" y="72" fill="#1d3f68" font-weight="bold">VERDICT UNCHANGED: 22 CONSECUTIVE CONFIRMATIONS</text><text x="46" y="116" fill="#26251f" font-size="10.5">PARTIAL / ENCODES-NOT-GENERATES / NOT-YET-PHYSICS</text><line x1="48" y1="84" x2="48" y2="96" stroke="#1d3f68" stroke-width="1.2"/><text x="48" y="136" text-anchor="middle" fill="#2f5b8f" font-size="10">1</text><line x1="76" y1="84" x2="76" y2="96" stroke="#1d3f68" stroke-width="1.2"/><line x1="103" y1="84" x2="103" y2="96" stroke="#1d3f68" stroke-width="1.2"/><line x1="131" y1="84" x2="131" y2="96" stroke="#1d3f68" stroke-width="1.2"/><line x1="159" y1="84" x2="159" y2="96" stroke="#1d3f68" stroke-width="1.2"/><text x="159" y="136" text-anchor="middle" fill="#2f5b8f" font-size="10">5</text><line x1="186" y1="84" x2="186" y2="96" stroke="#1d3f68" stroke-width="1.2"/><line x1="214" y1="84" x2="214" y2="96" stroke="#1d3f68" stroke-width="1.2"/><line x1="241" y1="84" x2="241" y2="96" stroke="#1d3f68" stroke-width="1.2"/><line x1="269" y1="84" x2="269" y2="96" stroke="#1d3f68" stroke-width="1.2"/><line x1="297" y1="84" x2="297" y2="96" stroke="#1d3f68" stroke-width="1.2"/><text x="297" y="136" text-anchor="middle" fill="#2f5b8f" font-size="10">10</text><line x1="324" y1="84" x2="324" y2="96" stroke="#1d3f68" stroke-width="1.2"/><line x1="352" y1="84" x2="352" y2="96" stroke="#1d3f68" stroke-width="1.2"/><line x1="380" y1="84" x2="380" y2="96" stroke="#1d3f68" stroke-width="1.2"/><line x1="407" y1="84" x2="407" y2="96" stroke="#1d3f68" stroke-width="1.2"/><line x1="435" y1="84" x2="435" y2="96" stroke="#1d3f68" stroke-width="1.2"/><line x1="463" y1="84" x2="463" y2="96" stroke="#1d3f68" stroke-width="1.2"/><text x="463" y="136" text-anchor="middle" fill="#2f5b8f" font-size="10">16</text><line x1="490" y1="84" x2="490" y2="96" stroke="#1d3f68" stroke-width="1.2"/><line x1="518" y1="84" x2="518" y2="96" stroke="#1d3f68" stroke-width="1.2"/><line x1="545" y1="84" x2="545" y2="96" stroke="#1d3f68" stroke-width="1.2"/><line x1="573" y1="84" x2="573" y2="96" stroke="#1d3f68" stroke-width="1.2"/><text x="573" y="136" text-anchor="middle" fill="#2f5b8f" font-size="10">20</text><line x1="601" y1="84" x2="601" y2="96" stroke="#1d3f68" stroke-width="1.2"/><line x1="628" y1="84" x2="628" y2="96" stroke="#1d3f68" stroke-width="1.2"/><line x1="656" y1="84" x2="656" y2="96" stroke="#1d3f68" stroke-width="1.2"/><text x="656" y="136" text-anchor="middle" fill="#2f5b8f" font-size="10">23</text><text x="350" y="175" text-anchor="middle" fill="#8a887e" font-size="10.5">iterations 1 to 23: every attack, construction, computation, and proof attempt; one flat line</text></svg>